<svg width="92" height="75" viewBox="0 0 92 75" fill="none" xmlns="http://www.w3.org/2000/svg">
<g clip-path="url(#clip0_245_816)">
<path d="M15.8262 36.8851H23.6672L44.3012 65.36H35.6349L15.8262 36.8851ZM5.50925 7.58481H12.5248V65.36H5.50925V7.58481ZM9.38844 13.775V7.58481H21.1911C24.9327 7.58481 28.2617 8.30012 31.1779 9.73074C34.1492 11.1063 36.4877 13.0872 38.1935 15.6733C39.9543 18.2595 40.8346 21.3408 40.8346 24.9174C40.8346 28.4389 39.9543 31.5202 38.1935 34.1614C36.4877 36.7475 34.1492 38.7559 31.1779 40.1865C28.2617 41.5621 24.9327 42.2499 21.1911 42.2499H9.38844V36.0597H21.1911C23.6672 36.0597 25.8406 35.6195 27.7114 34.7391C29.6373 33.8588 31.1229 32.5932 32.1684 30.9425C33.2688 29.2918 33.8191 27.2834 33.8191 24.9174C33.8191 22.5513 33.2688 20.543 32.1684 18.8922C31.1229 17.2415 29.6373 15.976 27.7114 15.0956C25.8406 14.2152 23.6672 13.775 21.1911 13.775H9.38844ZM57.2238 34.8217V30.9425H66.5504C68.4762 30.9425 70.2095 30.6123 71.7502 29.9521C73.2908 29.2918 74.5014 28.3288 75.3817 27.0633C76.2621 25.7977 76.7023 24.2571 76.7023 22.4413C76.7023 19.6901 75.7394 17.5717 73.8136 16.086C71.8877 14.5453 69.4667 13.775 66.5504 13.775H58.7095V59.1698H67.3758C69.8518 59.1698 72.0253 58.7296 73.8961 57.8492C75.8219 56.9688 77.3076 55.7033 78.353 54.0526C79.4535 52.4018 80.0038 50.3935 80.0038 48.0274C80.0038 46.2667 79.7011 44.6985 79.0959 43.3229C78.4906 41.9473 77.6102 40.7918 76.4547 39.8564C75.3542 38.921 74.0337 38.2332 72.493 37.793C70.9523 37.2978 69.2466 37.0501 67.3758 37.0501H57.2238V33.171H67.3758C70.182 33.171 72.7681 33.4736 75.1341 34.0789C77.5002 34.6841 79.5636 35.6195 81.3243 36.8851C83.1401 38.0956 84.5432 39.6638 85.5337 41.5896C86.5241 43.5155 87.0193 45.799 87.0193 48.4401C87.0193 52.2368 86.1389 55.4006 84.3782 57.9317C82.6724 60.4078 80.3339 62.2786 77.3626 63.5442C74.4463 64.7547 71.1174 65.36 67.3758 65.36H51.6939V7.58481H66.5504C70.0169 7.58481 73.0157 8.10753 75.5468 9.15299C78.1329 10.1984 80.1413 11.7941 81.5719 13.9401C83.0026 16.031 83.7179 18.7272 83.7179 22.0286C83.7179 24.7248 83.0026 27.0358 81.5719 28.9616C80.1413 30.8875 78.1329 32.3456 75.5468 33.336C73.0157 34.3265 70.0169 34.8217 66.5504 34.8217H57.2238Z" fill="#730237"/>
<path d="M15.8262 36.8851V36.3866C15.6406 36.3866 15.4704 36.4897 15.3844 36.6542C15.2984 36.8187 15.311 37.0174 15.417 37.1698L15.8262 36.8851ZM23.6672 36.8851L24.0708 36.5926C23.9771 36.4632 23.827 36.3866 23.6672 36.3866V36.8851ZM44.3012 65.36V65.8585C44.4885 65.8585 44.66 65.7535 44.7452 65.5866C44.8304 65.4197 44.8148 65.2192 44.7048 65.0675L44.3012 65.36ZM35.6349 65.36L35.2256 65.6447C35.3188 65.7786 35.4717 65.8585 35.6349 65.8585V65.36ZM5.50925 7.58481V7.08629C5.23393 7.08629 5.01073 7.30948 5.01073 7.58481H5.50925ZM12.5248 7.58481H13.0233C13.0233 7.30948 12.8001 7.08629 12.5248 7.08629V7.58481ZM12.5248 65.36V65.8585C12.8001 65.8585 13.0233 65.6353 13.0233 65.36H12.5248ZM5.50925 65.36H5.01073C5.01073 65.6353 5.23393 65.8585 5.50925 65.8585V65.36ZM9.38844 13.775H8.88992C8.88992 14.0503 9.11312 14.2735 9.38844 14.2735V13.775ZM9.38844 7.58481V7.08629C9.11312 7.08629 8.88992 7.30948 8.88992 7.58481H9.38844ZM31.1779 9.73074L30.9583 10.1784L30.9685 10.1831L31.1779 9.73074ZM38.1935 15.6733L37.7773 15.9478L37.7814 15.9539L38.1935 15.6733ZM38.1935 34.1614L37.7787 33.8849L37.7773 33.8869L38.1935 34.1614ZM31.1779 40.1865L31.3906 40.6374L31.3942 40.6357L31.1779 40.1865ZM9.38844 42.2499H8.88992C8.88992 42.5252 9.11312 42.7484 9.38844 42.7484V42.2499ZM9.38844 36.0597V35.5612C9.11312 35.5612 8.88992 35.7844 8.88992 36.0597H9.38844ZM27.7114 34.7391L27.5041 34.2857L27.4992 34.2881L27.7114 34.7391ZM32.1684 30.9425L31.7535 30.6659L31.7472 30.6758L32.1684 30.9425ZM32.1684 18.8922L31.7471 19.159L31.7536 19.1688L32.1684 18.8922ZM27.7114 15.0956L27.4991 15.5467L27.5042 15.549L27.7114 15.0956ZM15.8262 37.3836H23.6672V36.3866H15.8262V37.3836ZM23.2635 37.1776L43.8975 65.6525L44.7048 65.0675L24.0708 36.5926L23.2635 37.1776ZM44.3012 64.8615H35.6349V65.8585H44.3012V64.8615ZM36.0441 65.0753L16.2355 36.6004L15.417 37.1698L35.2256 65.6447L36.0441 65.0753ZM5.50925 8.08332H12.5248V7.08629H5.50925V8.08332ZM12.0263 7.58481V65.36H13.0233V7.58481H12.0263ZM12.5248 64.8615H5.50925V65.8585H12.5248V64.8615ZM6.00777 65.36V7.58481H5.01073V65.36H6.00777ZM9.88696 13.775V7.58481H8.88992V13.775H9.88696ZM9.38844 8.08332H21.1911V7.08629H9.38844V8.08332ZM21.1911 8.08332C24.8682 8.08332 28.1201 8.78595 30.9584 10.1783L31.3975 9.28318C28.4032 7.81428 24.9973 7.08629 21.1911 7.08629V8.08332ZM30.9685 10.1831C33.8607 11.5221 36.1256 13.4435 37.7773 15.9478L38.6096 15.3988C36.8499 12.7309 34.4378 10.6906 31.3874 9.27835L30.9685 10.1831ZM37.7814 15.9539C39.4781 18.4459 40.3361 21.4261 40.3361 24.9174H41.3332C41.3332 21.2555 40.4304 18.0731 38.6056 15.3928L37.7814 15.9539ZM40.3361 24.9174C40.3361 28.3517 39.479 31.3344 37.7787 33.8849L38.6083 34.4379C40.4295 31.706 41.3332 28.5261 41.3332 24.9174H40.3361ZM37.7773 33.8869C36.1244 36.3929 33.8572 38.3432 30.9617 39.7374L31.3942 40.6357C34.4412 39.1686 36.8511 37.1021 38.6096 34.4359L37.7773 33.8869ZM30.9653 39.7356C28.1254 41.0752 24.8709 41.7514 21.1911 41.7514V42.7484C24.9945 42.7484 28.398 42.049 31.3906 40.6374L30.9653 39.7356ZM21.1911 41.7514H9.38844V42.7484H21.1911V41.7514ZM9.88696 42.2499V36.0597H8.88992V42.2499H9.88696ZM9.38844 36.5582H21.1911V35.5612H9.38844V36.5582ZM21.1911 36.5582C23.7262 36.5582 25.9747 36.1074 27.9237 35.1902L27.4992 34.2881C25.7066 35.1316 23.6081 35.5612 21.1911 35.5612V36.5582ZM27.9187 35.1925C29.9247 34.2755 31.488 32.9484 32.5895 31.2092L31.7472 30.6758C30.7578 32.238 29.3498 33.442 27.5042 34.2858L27.9187 35.1925ZM32.5832 31.219C33.748 29.4717 34.3176 27.3625 34.3176 24.9174H33.3206C33.3206 27.2042 32.7897 29.1118 31.7536 30.666L32.5832 31.219ZM34.3176 24.9174C34.3176 22.4722 33.748 20.363 32.5832 18.6157L31.7536 19.1688C32.7897 20.7229 33.3206 22.6305 33.3206 24.9174H34.3176ZM32.5895 18.6255C31.488 16.8863 29.9247 15.5592 27.9187 14.6422L27.5042 15.549C29.3498 16.3927 30.7578 17.5967 31.7472 19.159L32.5895 18.6255ZM27.9237 14.6445C25.9747 13.7273 23.7262 13.2765 21.1911 13.2765V14.2735C23.6081 14.2735 25.7066 14.7031 27.4992 15.5466L27.9237 14.6445ZM21.1911 13.2765H9.38844V14.2735H21.1911V13.2765ZM57.2238 34.8217H56.7253C56.7253 35.097 56.9485 35.3202 57.2238 35.3202V34.8217ZM57.2238 30.9425V30.444C56.9485 30.444 56.7253 30.6672 56.7253 30.9425H57.2238ZM73.8136 16.086L73.5021 16.4754L73.5091 16.4807L73.8136 16.086ZM58.7095 13.775V13.2765C58.4342 13.2765 58.211 13.4997 58.211 13.775H58.7095ZM58.7095 59.1698H58.211C58.211 59.4451 58.4342 59.6683 58.7095 59.6683V59.1698ZM73.8961 57.8492L73.6888 57.3958L73.6838 57.3981L73.8961 57.8492ZM78.353 54.0526L77.9381 53.776L77.9319 53.7858L78.353 54.0526ZM79.0959 43.3229L79.5522 43.1221L79.5522 43.1221L79.0959 43.3229ZM76.4547 39.8564L76.1318 40.2363L76.1411 40.2438L76.4547 39.8564ZM72.493 37.793L72.3404 38.2676C72.3456 38.2692 72.3508 38.2708 72.356 38.2723L72.493 37.793ZM57.2238 37.0501H56.7253C56.7253 37.3255 56.9485 37.5487 57.2238 37.5487V37.0501ZM57.2238 33.171V32.6724C56.9485 32.6724 56.7253 32.8956 56.7253 33.171H57.2238ZM75.1341 34.0789L75.0106 34.5618L75.0106 34.5618L75.1341 34.0789ZM81.3243 36.8851L81.0334 37.2899C81.0381 37.2933 81.0429 37.2966 81.0478 37.2999L81.3243 36.8851ZM85.5337 41.5896L85.0903 41.8176L85.0903 41.8176L85.5337 41.5896ZM84.3782 57.9317L83.9689 57.6471L83.9676 57.6489L84.3782 57.9317ZM77.3626 63.5442L77.5537 64.0046L77.558 64.0028L77.3626 63.5442ZM51.6939 65.36H51.1954C51.1954 65.6353 51.4186 65.8585 51.6939 65.8585V65.36ZM51.6939 7.58481V7.08629C51.4186 7.08629 51.1954 7.30948 51.1954 7.58481H51.6939ZM75.5468 9.15299L75.3565 9.61376L75.36 9.61517L75.5468 9.15299ZM81.5719 13.9401L81.1571 14.2166L81.1605 14.2216L81.5719 13.9401ZM81.5719 28.9616L81.9721 29.2589L81.9721 29.2589L81.5719 28.9616ZM75.5468 33.336L75.3685 32.8705L75.3652 32.8718L75.5468 33.336ZM57.7224 34.8217V30.9425H56.7253V34.8217H57.7224ZM57.2238 31.441H66.5504V30.444H57.2238V31.441ZM66.5504 31.441C68.5338 31.441 70.3353 31.1008 71.9465 30.4103L71.5538 29.4938C70.0837 30.1239 68.4187 30.444 66.5504 30.444V31.441ZM71.9465 30.4103C73.5652 29.7165 74.8527 28.6968 75.791 27.348L74.9725 26.7786C74.1501 27.9609 73.0164 28.867 71.5538 29.4938L71.9465 30.4103ZM75.791 27.348C76.7393 25.9848 77.2008 24.3403 77.2008 22.4413H76.2038C76.2038 24.1738 75.785 25.6107 74.9725 26.7786L75.791 27.348ZM77.2008 22.4413C77.2008 19.5586 76.1834 17.2846 74.1181 15.6913L73.5091 16.4807C75.2954 17.8587 76.2038 19.8215 76.2038 22.4413H77.2008ZM74.125 15.6967C72.0953 14.073 69.5584 13.2765 66.5504 13.2765V14.2735C69.375 14.2735 71.6801 15.0177 73.5021 16.4753L74.125 15.6967ZM66.5504 13.2765H58.7095V14.2735H66.5504V13.2765ZM58.211 13.775V59.1698H59.208V13.775H58.211ZM58.7095 59.6683H67.3758V58.6713H58.7095V59.6683ZM67.3758 59.6683C69.9109 59.6683 72.1593 59.2175 74.1084 58.3003L73.6838 57.3981C71.8912 58.2417 69.7928 58.6713 67.3758 58.6713V59.6683ZM74.1034 58.3026C76.1094 57.3856 77.6727 56.0585 78.7742 54.3193L77.9319 53.7858C76.9425 55.3481 75.5345 56.5521 73.6888 57.3958L74.1034 58.3026ZM78.7678 54.3291C79.9327 52.5818 80.5023 50.4726 80.5023 48.0274H79.5052C79.5052 50.3143 78.9743 52.2219 77.9383 53.776L78.7678 54.3291ZM80.5023 48.0274C80.5023 46.2093 80.1896 44.5709 79.5522 43.1221L78.6396 43.5237C79.2126 44.8261 79.5052 46.3241 79.5052 48.0274H80.5023ZM79.5522 43.1221C78.9153 41.6746 77.9863 40.4549 76.7684 39.4689L76.1411 40.2438C77.2341 41.1287 78.0659 42.2199 78.6396 43.5237L79.5522 43.1221ZM76.7776 39.4765C75.6173 38.4903 74.2314 37.7712 72.6299 37.3136L72.356 38.2723C73.8359 38.6951 75.0912 39.3517 76.1319 40.2362L76.7776 39.4765ZM72.6455 37.3184C71.0486 36.8051 69.2905 36.5516 67.3758 36.5516V37.5487C69.2027 37.5487 70.8561 37.7905 72.3404 38.2676L72.6455 37.3184ZM67.3758 36.5516H57.2238V37.5487H67.3758V36.5516ZM57.7224 37.0501V33.171H56.7253V37.0501H57.7224ZM57.2238 33.6695H67.3758V32.6724H57.2238V33.6695ZM67.3758 33.6695C70.1464 33.6695 72.6904 33.9683 75.0106 34.5618L75.2577 33.5959C72.8458 32.9789 70.2176 32.6724 67.3758 32.6724V33.6695ZM75.0106 34.5618C77.324 35.1536 79.329 36.0649 81.0334 37.2899L81.6153 36.4803C79.7981 35.1742 77.6763 34.2146 75.2577 33.5959L75.0106 34.5618ZM81.0478 37.2999C82.7936 38.4637 84.139 39.9678 85.0903 41.8176L85.977 41.3616C84.9475 39.3597 83.4867 37.7275 81.6009 36.4703L81.0478 37.2999ZM85.0903 41.8176C86.0374 43.6591 86.5208 45.8611 86.5208 48.4401H87.5178C87.5178 45.7368 87.0108 43.3718 85.977 41.3616L85.0903 41.8176ZM86.5208 48.4401C86.5208 52.1588 85.6593 55.2171 83.9689 57.6471L84.7874 58.2164C86.6186 55.5842 87.5178 52.3147 87.5178 48.4401H86.5208ZM83.9676 57.6489C82.3195 60.0414 80.0583 61.8542 77.1673 63.0855L77.558 64.0028C80.6095 62.7031 83.0253 60.7743 84.7887 58.2146L83.9676 57.6489ZM77.1715 63.0838C74.3259 64.265 71.0637 64.8615 67.3758 64.8615V65.8585C71.1711 65.8585 74.5668 65.2445 77.5537 64.0046L77.1715 63.0838ZM67.3758 64.8615H51.6939V65.8585H67.3758V64.8615ZM52.1924 65.36V7.58481H51.1954V65.36H52.1924ZM51.6939 8.08332H66.5504V7.08629H51.6939V8.08332ZM66.5504 8.08332C69.9683 8.08332 72.8995 8.59889 75.3565 9.61375L75.7371 8.69223C73.132 7.61618 70.0655 7.08629 66.5504 7.08629V8.08332ZM75.36 9.61517C77.8611 10.6263 79.7867 12.1609 81.1572 14.2166L81.9867 13.6635C80.4959 11.4274 78.4048 9.77061 75.7337 8.69081L75.36 9.61517ZM81.1605 14.2216C82.5195 16.2078 83.2194 18.7975 83.2194 22.0286H84.2164C84.2164 18.6569 83.4857 15.8542 81.9834 13.6586L81.1605 14.2216ZM83.2194 22.0286C83.2194 24.6316 82.5307 26.835 81.1718 28.6643L81.9721 29.2589C83.4744 27.2366 84.2164 24.818 84.2164 22.0286H83.2194ZM81.1718 28.6643C79.8059 30.503 77.8802 31.9086 75.3685 32.8705L75.7251 33.8016C78.3857 32.7826 80.4767 31.2719 81.9721 29.2589L81.1718 28.6643ZM75.3652 32.8718C72.9055 33.8343 69.9711 34.3232 66.5504 34.3232V35.3202C70.0627 35.3202 73.126 34.8186 75.7285 33.8003L75.3652 32.8718ZM66.5504 34.3232H57.2238V35.3202H66.5504V34.3232Z" fill="#730237"/>
</g>
<defs>
<clipPath id="clip0_245_816">
<rect width="92" height="75" fill="white"/>
</clipPath>
</defs>
</svg>
