<svg width="521" height="105" viewBox="0 0 521 105" fill="none" xmlns="http://www.w3.org/2000/svg">
<g clip-path="url(#clip0_270_165)">
<path d="M17.9187 57.7726H24.6479L42.3561 82.21H34.9186L17.9187 57.7726ZM9.06459 32.6269H15.0854V82.21H9.06459V32.6269ZM12.3937 37.9394V32.6269H22.5229C25.734 32.6269 28.5909 33.2408 31.0937 34.4686C33.6436 35.6491 35.6506 37.3491 37.1145 39.5686C38.6256 41.788 39.3811 44.4324 39.3811 47.5019C39.3811 50.5241 38.6256 53.1685 37.1145 55.4351C35.6506 57.6546 33.6436 59.3782 31.0937 60.606C28.5909 61.7865 25.734 62.3768 22.5229 62.3768H12.3937V57.0643H22.5229C24.6479 57.0643 26.5131 56.6865 28.1187 55.931C29.7714 55.1754 31.0464 54.0893 31.9437 52.6727C32.8881 51.256 33.3603 49.5324 33.3603 47.5019C33.3603 45.4713 32.8881 43.7477 31.9437 42.331C31.0464 40.9144 29.7714 39.8283 28.1187 39.0727C26.5131 38.3172 24.6479 37.9394 22.5229 37.9394H12.3937ZM53.4464 67.3351L55.5714 61.6685H77.5297L79.6547 67.3351H53.4464ZM66.4089 43.8185L58.0506 63.5101L57.4839 64.7851L50.1173 82.21H43.3882L66.4089 30.1478L89.4296 82.21H82.7005L75.4755 65.2101L74.9088 63.7934L66.4089 43.8185ZM98.7906 38.2936V32.6269H120.961V38.2936H98.7906ZM98.7906 58.1268V52.4602H120.253V58.1268H98.7906ZM95.4615 32.6269H101.482V82.21H95.4615V32.6269ZM130.643 67.3351L132.768 61.6685H154.727L156.852 67.3351H130.643ZM143.606 43.8185L135.247 63.5101L134.681 64.7851L127.314 82.21H120.585L143.606 30.1478L166.627 82.21H159.897L152.672 65.2101L152.106 63.7934L143.606 43.8185ZM198.64 56.0018V52.6727H206.644C208.297 52.6727 209.785 52.3893 211.107 51.8227C212.429 51.256 213.468 50.4296 214.224 49.3435C214.979 48.2574 215.357 46.9352 215.357 45.3769C215.357 43.0158 214.53 41.1977 212.878 39.9227C211.225 38.6005 209.147 37.9394 206.644 37.9394H199.915V76.8975H207.353C209.478 76.8975 211.343 76.5198 212.949 75.7642C214.601 75.0087 215.876 73.9226 216.774 72.5059C217.718 71.0892 218.19 69.3656 218.19 67.3351C218.19 65.824 217.93 64.4782 217.411 63.2976C216.892 62.1171 216.136 61.1254 215.144 60.3226C214.2 59.5199 213.067 58.9296 211.744 58.5518C210.422 58.1268 208.958 57.9143 207.353 57.9143H198.64V54.5852H207.353C209.761 54.5852 211.98 54.8449 214.011 55.3643C216.042 55.8838 217.812 56.6865 219.324 57.7726C220.882 58.8115 222.086 60.1573 222.936 61.8101C223.786 63.4629 224.211 65.4226 224.211 67.6893C224.211 70.9476 223.455 73.6628 221.944 75.8351C220.48 77.96 218.474 79.5656 215.924 80.6517C213.421 81.6906 210.564 82.21 207.353 82.21H193.894V32.6269H206.644C209.619 32.6269 212.193 33.0755 214.365 33.9727C216.585 34.87 218.308 36.2394 219.536 38.0811C220.764 39.8755 221.378 42.1894 221.378 45.0227C221.378 47.3366 220.764 49.3199 219.536 50.9727C218.308 52.6254 216.585 53.8768 214.365 54.7268C212.193 55.5768 209.619 56.0018 206.644 56.0018H198.64ZM242.246 57.7726H248.975L266.684 82.21H259.246L242.246 57.7726ZM233.392 32.6269H239.413V82.21H233.392V32.6269ZM236.721 37.9394V32.6269H246.85C250.062 32.6269 252.918 33.2408 255.421 34.4686C257.971 35.6491 259.978 37.3491 261.442 39.5686C262.953 41.788 263.709 44.4324 263.709 47.5019C263.709 50.5241 262.953 53.1685 261.442 55.4351C259.978 57.6546 257.971 59.3782 255.421 60.606C252.918 61.7865 250.062 62.3768 246.85 62.3768H236.721V57.0643H246.85C248.975 57.0643 250.841 56.6865 252.446 55.931C254.099 55.1754 255.374 54.0893 256.271 52.6727C257.216 51.256 257.688 49.5324 257.688 47.5019C257.688 45.4713 257.216 43.7477 256.271 42.331C255.374 40.9144 254.099 39.8283 252.446 39.0727C250.841 38.3172 248.975 37.9394 246.85 37.9394H236.721ZM277.774 67.3351L279.899 61.6685H301.857L303.982 67.3351H277.774ZM290.736 43.8185L282.378 63.5101L281.811 64.7851L274.445 82.21H267.716L290.736 30.1478L313.757 82.21H307.028L299.803 65.2101L299.236 63.7934L290.736 43.8185ZM357.331 32.6269H363.351V84.6892L325.81 45.306V82.21H319.789V30.1478L357.331 69.5309V32.6269ZM374.712 32.6269H380.733V82.21H374.712V32.6269ZM389.587 82.21H378.041V76.1892H389.587C392.373 76.1892 394.923 75.7642 397.237 74.9142C399.551 74.017 401.534 72.7656 403.187 71.1601C404.84 69.5073 406.115 67.524 407.012 65.2101C407.909 62.8962 408.358 60.299 408.358 57.4185C408.358 54.5379 407.909 51.9407 407.012 49.6268C406.115 47.313 404.84 45.3532 403.187 43.7477C401.534 42.0949 399.551 40.8435 397.237 39.9936C394.923 39.0963 392.373 38.6477 389.587 38.6477H378.041V32.6269H389.587C394.404 32.6269 398.677 33.6658 402.408 35.7436C406.139 37.8213 409.066 40.7255 411.191 44.456C413.316 48.1393 414.379 52.4602 414.379 57.4185C414.379 62.3768 413.316 66.7212 411.191 70.4517C409.066 74.1351 406.139 77.0156 402.408 79.0934C398.677 81.1711 394.404 82.21 389.587 82.21ZM425.458 67.3351L427.583 61.6685H449.541L451.666 67.3351H425.458ZM438.42 43.8185L430.062 63.5101L429.496 64.7851L422.129 82.21H415.4L438.42 30.1478L461.441 82.21H454.712L447.487 65.2101L446.92 63.7934L438.42 43.8185ZM426.733 24.6936C426.969 23.5131 427.465 22.4978 428.221 21.6478C428.976 20.7978 429.873 20.1367 430.912 19.6645C431.998 19.145 433.061 18.8853 434.1 18.8853C435.233 18.8853 436.154 19.0506 436.862 19.3811C437.618 19.7117 438.255 20.1131 438.775 20.5853C439.341 21.0103 439.932 21.3881 440.545 21.7186C441.159 22.0492 441.939 22.2145 442.883 22.2145C443.544 22.2145 444.182 21.9311 444.795 21.3645C445.457 20.7978 446.141 19.9478 446.85 18.8145L450.108 21.8603C449.73 22.7103 449.163 23.5367 448.408 24.3395C447.7 25.1422 446.85 25.8033 445.858 26.3228C444.866 26.795 443.78 27.0311 442.6 27.0311C441.325 27.0311 440.239 26.7478 439.341 26.1811C438.444 25.6145 437.594 25.0714 436.791 24.552C436.036 23.9853 435.115 23.702 434.029 23.702C433.084 23.702 432.352 23.9381 431.833 24.4103C431.314 24.8353 430.959 25.3311 430.771 25.8978C430.582 26.4644 430.487 26.9367 430.487 27.3144L426.733 24.6936ZM468.87 57.4185C468.87 61.149 469.673 64.4782 471.279 67.4059C472.931 70.3337 475.175 72.6476 478.008 74.3476C480.841 76.0476 484.052 76.8975 487.641 76.8975C491.277 76.8975 494.488 76.0476 497.274 74.3476C500.108 72.6476 502.327 70.3337 503.933 67.4059C505.585 64.4782 506.412 61.149 506.412 57.4185C506.412 53.6879 505.585 50.3588 503.933 47.431C502.327 44.5033 500.108 42.1894 497.274 40.4894C494.488 38.7894 491.277 37.9394 487.641 37.9394C484.052 37.9394 480.841 38.7894 478.008 40.4894C475.175 42.1894 472.931 44.5033 471.279 47.431C469.673 50.3588 468.87 53.6879 468.87 57.4185ZM462.495 57.4185C462.495 53.7824 463.109 50.4296 464.337 47.3602C465.612 44.2435 467.383 41.5519 469.65 39.2852C471.916 36.9713 474.584 35.1769 477.654 33.9019C480.723 32.5797 484.052 31.9186 487.641 31.9186C491.277 31.9186 494.606 32.5797 497.629 33.9019C500.698 35.1769 503.366 36.9713 505.633 39.2852C507.899 41.5519 509.647 44.2435 510.874 47.3602C512.149 50.4296 512.787 53.7824 512.787 57.4185C512.787 61.0073 512.149 64.3601 510.874 67.4768C509.647 70.5934 507.899 73.3087 505.633 75.6226C503.366 77.8892 500.698 79.6836 497.629 81.0059C494.606 82.2809 491.277 82.9184 487.641 82.9184C484.052 82.9184 480.723 82.2809 477.654 81.0059C474.584 79.6836 471.916 77.8892 469.65 75.6226C467.383 73.3087 465.612 70.5934 464.337 67.4768C463.109 64.3601 462.495 61.0073 462.495 57.4185Z" fill="white"/>
</g>
<defs>
<clipPath id="clip0_270_165">
<rect width="521" height="105" fill="white"/>
</clipPath>
</defs>
</svg>
