<svg width="215" height="165" viewBox="0 0 215 165" fill="none" xmlns="http://www.w3.org/2000/svg">
<g clip-path="url(#clip0_246_150)">
<path d="M31.5467 90.2165H51.3356L103.411 162.081H81.5396L31.5467 90.2165ZM5.50877 16.2687H23.2146V162.081H5.50877V16.2687ZM15.299 31.8915V16.2687H45.0865C54.5296 16.2687 62.9311 18.074 70.2912 21.6846C77.7901 25.1564 83.6921 30.1557 87.997 36.6825C92.4408 43.2094 94.6627 50.986 94.6627 60.0125C94.6627 68.9001 92.4408 76.6768 87.997 83.3425C83.6921 89.8694 77.7901 94.9381 70.2912 98.5487C62.9311 102.02 54.5296 103.756 45.0865 103.756H15.299V88.1335H45.0865C51.3356 88.1335 56.8209 87.0226 61.5425 84.8006C66.4029 82.5787 70.1523 79.3848 72.7909 75.2187C75.5682 71.0526 76.9569 65.9839 76.9569 60.0125C76.9569 54.0411 75.5682 48.9724 72.7909 44.8063C70.1523 40.6403 66.4029 37.4463 61.5425 35.2244C56.8209 33.0025 51.3356 31.8915 45.0865 31.8915H15.299ZM136.026 85.009V75.2187H159.564C164.424 75.2187 168.799 74.3855 172.687 72.719C176.575 71.0526 179.631 68.6224 181.852 65.4284C184.074 62.2344 185.185 58.3461 185.185 53.7634C185.185 46.8199 182.755 41.4735 177.895 37.724C173.034 33.8357 166.924 31.8915 159.564 31.8915H139.775V146.459H161.647C167.896 146.459 173.381 145.348 178.103 143.126C182.963 140.904 186.713 137.71 189.351 133.544C192.129 129.378 193.517 124.309 193.517 118.338C193.517 113.894 192.754 109.936 191.226 106.464C189.699 102.992 187.477 100.076 184.56 97.7155C181.783 95.3547 178.45 93.6188 174.562 92.5079C170.673 91.2581 166.369 90.6331 161.647 90.6331H136.026V80.8429H161.647C168.729 80.8429 175.256 81.6067 181.228 83.1342C187.199 84.6618 192.407 87.0225 196.85 90.2165C201.433 93.2717 204.974 97.2294 207.474 102.09C209.973 106.95 211.223 112.713 211.223 119.379C211.223 128.961 209.001 136.946 204.558 143.334C200.253 149.583 194.351 154.305 186.852 157.499C179.492 160.554 171.09 162.081 161.647 162.081H122.069V16.2687H159.564C168.313 16.2687 175.881 17.588 182.269 20.2265C188.796 22.865 193.865 26.8922 197.475 32.3081C201.086 37.5852 202.891 44.3897 202.891 52.7219C202.891 59.5265 201.086 65.359 197.475 70.2194C193.865 75.0798 188.796 78.7598 182.269 81.2595C175.881 83.7591 168.313 85.009 159.564 85.009H136.026Z" fill="#730237"/>
<path d="M31.5467 90.2165V89.7166C31.3606 89.7166 31.1898 89.82 31.1036 89.985C31.0174 90.15 31.03 90.3492 31.1363 90.502L31.5467 90.2165ZM51.3356 90.2165L51.7404 89.9232C51.6464 89.7934 51.4958 89.7166 51.3356 89.7166V90.2165ZM103.411 162.081V162.581C103.599 162.581 103.771 162.476 103.857 162.309C103.942 162.141 103.927 161.94 103.816 161.788L103.411 162.081ZM81.5396 162.081L81.1292 162.367C81.2227 162.501 81.376 162.581 81.5396 162.581V162.081ZM5.50877 16.2687V15.7688C5.23267 15.7688 5.00885 15.9926 5.00885 16.2687H5.50877ZM23.2146 16.2687H23.7145C23.7145 15.9926 23.4907 15.7688 23.2146 15.7688V16.2687ZM23.2146 162.081V162.581C23.4907 162.581 23.7145 162.357 23.7145 162.081H23.2146ZM5.50877 162.081H5.00885C5.00885 162.357 5.23267 162.581 5.50877 162.581V162.081ZM15.299 31.8915H14.7991C14.7991 32.1676 15.0229 32.3915 15.299 32.3915V31.8915ZM15.299 16.2687V15.7688C15.0229 15.7688 14.7991 15.9926 14.7991 16.2687H15.299ZM70.2912 21.6846L70.071 22.1336L70.0812 22.1383L70.2912 21.6846ZM87.997 36.6825L87.5796 36.9578L87.5838 36.9639L87.997 36.6825ZM87.997 83.3425L87.581 83.0652L87.5797 83.0673L87.997 83.3425ZM70.2912 98.5487L70.5045 99.0009L70.5081 98.9991L70.2912 98.5487ZM15.299 103.756H14.7991C14.7991 104.032 15.0229 104.256 15.299 104.256V103.756ZM15.299 88.1335V87.6336C15.0229 87.6336 14.7991 87.8574 14.7991 88.1335H15.299ZM61.5425 84.8006L61.3346 84.3459L61.3296 84.3483L61.5425 84.8006ZM72.7909 75.2187L72.3748 74.9413L72.3685 74.9512L72.7909 75.2187ZM72.7909 44.8063L72.3684 45.0739L72.3749 45.0837L72.7909 44.8063ZM61.5425 35.2244L61.3296 35.6768L61.3346 35.6791L61.5425 35.2244ZM31.5467 90.7165H51.3356V89.7166H31.5467V90.7165ZM50.9308 90.5099L103.007 162.375L103.816 161.788L51.7404 89.9232L50.9308 90.5099ZM103.411 161.581H81.5396V162.581H103.411V161.581ZM81.95 161.796L31.9571 89.931L31.1363 90.502L81.1292 162.367L81.95 161.796ZM5.50877 16.7687H23.2146V15.7688H5.50877V16.7687ZM22.7147 16.2687V162.081H23.7145V16.2687H22.7147ZM23.2146 161.581H5.50877V162.581H23.2146V161.581ZM6.0087 162.081V16.2687H5.00885V162.081H6.0087ZM15.799 31.8915V16.2687H14.7991V31.8915H15.799ZM15.299 16.7687H45.0865V15.7688H15.299V16.7687ZM45.0865 16.7687C54.4648 16.7687 62.7892 18.5613 70.071 22.1335L70.5114 21.2358C63.0731 17.5868 54.5943 15.7688 45.0865 15.7688V16.7687ZM70.0812 22.1383C77.5008 25.5733 83.3289 30.513 87.5797 36.9578L88.4143 36.4072C84.0553 29.7983 78.0795 24.7394 70.5012 21.231L70.0812 22.1383ZM87.5838 36.9639C91.9633 43.3963 94.1628 51.0716 94.1628 60.0125H95.1627C95.1627 50.9005 92.9184 43.0224 88.4103 36.4011L87.5838 36.9639ZM94.1628 60.0125C94.1628 68.8127 91.9642 76.4905 87.581 83.0652L88.413 83.6198C92.9174 76.8631 95.1627 68.9876 95.1627 60.0125H94.1628ZM87.5797 83.0673C83.3277 89.5138 77.4973 94.5242 70.0743 98.0983L70.5081 98.9991C78.083 95.352 84.0564 90.225 88.4143 83.6178L87.5797 83.0673ZM70.0779 98.0965C62.7945 101.532 54.4676 103.256 45.0865 103.256V104.256C54.5915 104.256 63.0678 102.509 70.5045 99.0008L70.0779 98.0965ZM45.0865 103.256H15.299V104.256H45.0865V103.256ZM15.799 103.756V88.1335H14.7991V103.756H15.799ZM15.299 88.6334H45.0865V87.6336H15.299V88.6334ZM45.0865 88.6334C51.3948 88.6334 56.9553 87.5118 61.7553 85.253L61.3296 84.3483C56.6865 86.5333 51.2763 87.6336 45.0865 87.6336V88.6334ZM61.7503 85.2553C66.6912 82.9966 70.5185 79.741 73.2132 75.4862L72.3685 74.9512C69.7862 79.0285 66.1146 82.1608 61.3346 84.346L61.7503 85.2553ZM73.2068 75.496C76.0488 71.2331 77.4569 66.0633 77.4569 60.0125H76.457C76.457 65.9045 75.0877 70.8721 72.3749 74.9414L73.2068 75.496ZM77.4569 60.0125C77.4569 53.9618 76.0488 48.792 73.2068 44.529L72.3749 45.0837C75.0877 49.1529 76.457 54.1205 76.457 60.0125H77.4569ZM73.2132 44.5389C70.5185 40.284 66.6912 37.0284 61.7503 34.7697L61.3346 35.6791C66.1146 37.8642 69.7862 40.9965 72.3685 45.0738L73.2132 44.5389ZM61.7553 34.772C56.9553 32.5132 51.3948 31.3916 45.0865 31.3916V32.3915C51.2763 32.3915 56.6865 33.4917 61.3296 35.6767L61.7553 34.772ZM45.0865 31.3916H15.299V32.3915H45.0865V31.3916ZM136.026 85.009H135.526C135.526 85.2851 135.75 85.5089 136.026 85.5089V85.009ZM136.026 75.2187V74.7187C135.75 74.7187 135.526 74.9426 135.526 75.2187H136.026ZM177.895 37.724L177.582 38.1145L177.589 38.1199L177.895 37.724ZM139.775 31.8915V31.3916C139.499 31.3916 139.275 31.6154 139.275 31.8915H139.775ZM139.775 146.459H139.275C139.275 146.735 139.499 146.958 139.775 146.958V146.459ZM178.103 143.126L177.895 142.671L177.89 142.673L178.103 143.126ZM189.351 133.544L188.935 133.266L188.929 133.276L189.351 133.544ZM191.226 106.464L191.684 106.263L191.684 106.263L191.226 106.464ZM184.56 97.7155L184.237 98.0965L184.246 98.104L184.56 97.7155ZM174.562 92.5079L174.409 92.9838C174.414 92.9855 174.419 92.9871 174.424 92.9886L174.562 92.5079ZM136.026 90.6331H135.526C135.526 90.9093 135.75 91.1331 136.026 91.1331V90.6331ZM136.026 80.8429V80.3429C135.75 80.3429 135.526 80.5668 135.526 80.8429H136.026ZM181.228 83.1342L181.104 83.6186L181.104 83.6186L181.228 83.1342ZM196.85 90.2165L196.559 90.6225C196.563 90.6259 196.568 90.6293 196.573 90.6325L196.85 90.2165ZM207.474 102.09L207.029 102.318L207.029 102.318L207.474 102.09ZM204.558 143.334L204.147 143.048L204.146 143.05L204.558 143.334ZM186.852 157.499L187.043 157.96L187.048 157.959L186.852 157.499ZM122.069 162.081H121.569C121.569 162.357 121.793 162.581 122.069 162.581V162.081ZM122.069 16.2687V15.7688C121.793 15.7688 121.569 15.9926 121.569 16.2687H122.069ZM182.269 20.2265L182.078 20.6886L182.082 20.69L182.269 20.2265ZM197.475 32.3081L197.059 32.5855L197.063 32.5904L197.475 32.3081ZM197.475 70.2194L197.877 70.5175L197.877 70.5175L197.475 70.2194ZM182.269 81.2595L182.09 80.7926L182.087 80.7939L182.269 81.2595ZM136.526 85.009V75.2187H135.526V85.009H136.526ZM136.026 75.7186H159.564V74.7187H136.026V75.7186ZM159.564 75.7186C164.482 75.7186 168.925 74.8753 172.884 73.1785L172.49 72.2595C168.673 73.8956 164.367 74.7187 159.564 74.7187V75.7186ZM172.884 73.1785C176.851 71.4786 179.983 68.9914 182.263 65.7139L181.442 65.1429C179.278 68.2534 176.3 70.6266 172.49 72.2595L172.884 73.1785ZM182.263 65.7139C184.553 62.422 185.685 58.4295 185.685 53.7634H184.685C184.685 58.2626 183.596 62.0468 181.442 65.1429L182.263 65.7139ZM185.685 53.7634C185.685 46.6881 183.2 41.1856 178.2 37.3282L177.589 38.1199C182.31 41.7614 184.685 46.9518 184.685 53.7634H185.685ZM178.207 37.3336C173.242 33.362 167.016 31.3916 159.564 31.3916V32.3915C166.832 32.3915 172.826 34.3094 177.582 38.1144L178.207 37.3336ZM159.564 31.3916H139.775V32.3915H159.564V31.3916ZM139.275 31.8915V146.459H140.275V31.8915H139.275ZM139.775 146.958H161.647V145.959H139.775V146.958ZM161.647 146.958C167.955 146.958 173.516 145.837 178.316 143.578L177.89 142.673C173.247 144.858 167.837 145.959 161.647 145.959V146.958ZM178.311 143.58C183.252 141.322 187.079 138.066 189.774 133.811L188.929 133.276C186.347 137.354 182.675 140.486 177.895 142.671L178.311 143.58ZM189.767 133.821C192.609 129.558 194.017 124.388 194.017 118.338H193.018C193.018 124.23 191.648 129.197 188.935 133.266L189.767 133.821ZM194.017 118.338C194.017 113.836 193.244 109.808 191.684 106.263L190.769 106.666C192.264 110.064 193.018 113.951 193.018 118.338H194.017ZM191.684 106.263C190.124 102.719 187.854 99.7384 184.875 97.3269L184.246 98.104C187.099 100.414 189.273 103.266 190.769 106.666L191.684 106.263ZM184.884 97.3346C182.047 94.9228 178.648 93.1556 174.699 92.0272L174.424 92.9886C178.252 94.0821 181.519 95.7866 184.237 98.0964L184.884 97.3346ZM174.715 92.0319C170.77 90.764 166.413 90.1332 161.647 90.1332V91.1331C166.325 91.1331 170.577 91.7522 174.409 92.9838L174.715 92.0319ZM161.647 90.1332H136.026V91.1331H161.647V90.1332ZM136.526 90.6331V80.8429H135.526V90.6331H136.526ZM136.026 81.3428H161.647V80.3429H136.026V81.3428ZM161.647 81.3428C168.694 81.3428 175.178 82.1028 181.104 83.6186L181.351 82.6499C175.334 81.1106 168.765 80.3429 161.647 80.3429V81.3428ZM181.104 83.6186C187.022 85.1326 192.171 87.4692 196.559 90.6225L197.142 89.8106C192.642 86.5759 187.376 84.1909 181.351 82.6499L181.104 83.6186ZM196.573 90.6325C201.085 93.6408 204.569 97.5343 207.029 102.318L207.918 101.861C205.38 96.9245 201.781 92.9025 197.128 89.8006L196.573 90.6325ZM207.029 102.318C209.485 107.094 210.723 112.776 210.723 119.379H211.723C211.723 112.651 210.462 106.806 207.918 101.861L207.029 102.318ZM210.723 119.379C210.723 128.883 208.52 136.762 204.147 143.048L204.968 143.619C209.482 137.13 211.723 129.039 211.723 119.379H210.723ZM204.146 143.05C199.899 149.216 194.074 153.879 186.656 157.039L187.048 157.959C194.627 154.73 200.607 149.951 204.969 143.618L204.146 143.05ZM186.66 157.037C179.371 160.063 171.036 161.581 161.647 161.581V162.581C171.144 162.581 179.612 161.045 187.043 157.96L186.66 157.037ZM161.647 161.581H122.069V162.581H161.647V161.581ZM122.569 162.081V16.2687H121.569V162.081H122.569ZM122.069 16.7687H159.564V15.7688H122.069V16.7687ZM159.564 16.7687C168.264 16.7687 175.765 18.0807 182.078 20.6886L182.46 19.7644C175.998 17.0953 168.361 15.7688 159.564 15.7688V16.7687ZM182.082 20.69C188.523 23.2941 193.509 27.26 197.059 32.5854L197.891 32.0308C194.22 26.5244 189.068 22.436 182.456 19.763L182.082 20.69ZM197.063 32.5904C200.601 37.7624 202.391 44.4602 202.391 52.7219H203.391C203.391 44.3192 201.57 37.4079 197.888 32.0258L197.063 32.5904ZM202.391 52.7219C202.391 59.433 200.613 65.1576 197.074 69.9213L197.877 70.5175C201.559 65.5603 203.391 59.6199 203.391 52.7219H202.391ZM197.074 69.9213C193.528 74.6943 188.542 78.3216 182.09 80.7926L182.448 81.7263C189.049 79.1981 194.201 75.4654 197.877 70.5175L197.074 69.9213ZM182.087 80.7939C175.771 83.2656 168.267 84.509 159.564 84.509V85.5089C168.359 85.5089 175.992 84.2527 182.451 81.725L182.087 80.7939ZM159.564 84.509H136.026V85.5089H159.564V84.509Z" fill="#730237"/>
</g>
<defs>
<clipPath id="clip0_246_150">
<rect width="215" height="165" fill="white"/>
</clipPath>
</defs>
</svg>
